<mxfile host="app.diagrams.net" agent="Mozilla/5.0 (Windows NT 10.0; Win64; x64) AppleWebKit/537.36 (KHTML, like Gecko) Chrome/136.0.0.0 Safari/537.36" version="27.0.6">
  <diagram name="PÃ¡gina-1" id="uMfz6ooZvfRQZMJT7nqi">
    <mxGraphModel dx="1678" dy="921" grid="1" gridSize="10" guides="1" tooltips="1" connect="1" arrows="1" fold="1" page="1" pageScale="1" pageWidth="1169" pageHeight="827" math="0" shadow="0">
      <root>
        <mxCell id="0" />
        <mxCell id="1" parent="0" />
        <mxCell id="QcyP5z_Ch9aapaAGs-tU-14" style="edgeStyle=orthogonalEdgeStyle;rounded=0;orthogonalLoop=1;jettySize=auto;html=1;entryX=1;entryY=0.5;entryDx=0;entryDy=0;" edge="1" parent="1" source="QcyP5z_Ch9aapaAGs-tU-3" target="QcyP5z_Ch9aapaAGs-tU-9">
          <mxGeometry relative="1" as="geometry" />
        </mxCell>
        <mxCell id="QcyP5z_Ch9aapaAGs-tU-15" style="edgeStyle=orthogonalEdgeStyle;rounded=0;orthogonalLoop=1;jettySize=auto;html=1;exitX=0;exitY=0;exitDx=0;exitDy=0;entryX=0.5;entryY=1;entryDx=0;entryDy=0;" edge="1" parent="1" source="QcyP5z_Ch9aapaAGs-tU-3" target="QcyP5z_Ch9aapaAGs-tU-10">
          <mxGeometry relative="1" as="geometry" />
        </mxCell>
        <mxCell id="QcyP5z_Ch9aapaAGs-tU-16" style="edgeStyle=orthogonalEdgeStyle;rounded=0;orthogonalLoop=1;jettySize=auto;html=1;entryX=0.5;entryY=1;entryDx=0;entryDy=0;" edge="1" parent="1" source="QcyP5z_Ch9aapaAGs-tU-3" target="QcyP5z_Ch9aapaAGs-tU-11">
          <mxGeometry relative="1" as="geometry" />
        </mxCell>
        <mxCell id="QcyP5z_Ch9aapaAGs-tU-18" style="edgeStyle=orthogonalEdgeStyle;rounded=0;orthogonalLoop=1;jettySize=auto;html=1;entryX=0.5;entryY=0;entryDx=0;entryDy=0;" edge="1" parent="1" source="QcyP5z_Ch9aapaAGs-tU-3" target="QcyP5z_Ch9aapaAGs-tU-12">
          <mxGeometry relative="1" as="geometry" />
        </mxCell>
        <mxCell id="QcyP5z_Ch9aapaAGs-tU-19" style="edgeStyle=orthogonalEdgeStyle;rounded=0;orthogonalLoop=1;jettySize=auto;html=1;exitX=0;exitY=1;exitDx=0;exitDy=0;" edge="1" parent="1" source="QcyP5z_Ch9aapaAGs-tU-3" target="QcyP5z_Ch9aapaAGs-tU-8">
          <mxGeometry relative="1" as="geometry" />
        </mxCell>
        <mxCell id="QcyP5z_Ch9aapaAGs-tU-52" style="edgeStyle=orthogonalEdgeStyle;rounded=0;orthogonalLoop=1;jettySize=auto;html=1;exitX=1;exitY=0.5;exitDx=0;exitDy=0;entryX=0;entryY=0.5;entryDx=0;entryDy=0;" edge="1" parent="1" source="QcyP5z_Ch9aapaAGs-tU-3" target="QcyP5z_Ch9aapaAGs-tU-51">
          <mxGeometry relative="1" as="geometry" />
        </mxCell>
        <mxCell id="QcyP5z_Ch9aapaAGs-tU-3" value="users" style="rounded=1;whiteSpace=wrap;html=1;" vertex="1" parent="1">
          <mxGeometry x="170" y="140" width="80" height="30" as="geometry" />
        </mxCell>
        <mxCell id="QcyP5z_Ch9aapaAGs-tU-8" value="created_at" style="ellipse;whiteSpace=wrap;html=1;" vertex="1" parent="1">
          <mxGeometry x="70" y="220" width="70" height="40" as="geometry" />
        </mxCell>
        <mxCell id="QcyP5z_Ch9aapaAGs-tU-9" value="role" style="ellipse;whiteSpace=wrap;html=1;" vertex="1" parent="1">
          <mxGeometry x="20" y="135" width="70" height="40" as="geometry" />
        </mxCell>
        <mxCell id="QcyP5z_Ch9aapaAGs-tU-10" value="password" style="ellipse;whiteSpace=wrap;html=1;" vertex="1" parent="1">
          <mxGeometry x="70" y="50" width="70" height="40" as="geometry" />
        </mxCell>
        <mxCell id="QcyP5z_Ch9aapaAGs-tU-11" value="username" style="ellipse;whiteSpace=wrap;html=1;" vertex="1" parent="1">
          <mxGeometry x="175" y="50" width="70" height="40" as="geometry" />
        </mxCell>
        <mxCell id="QcyP5z_Ch9aapaAGs-tU-12" value="email" style="ellipse;whiteSpace=wrap;html=1;" vertex="1" parent="1">
          <mxGeometry x="175" y="220" width="70" height="40" as="geometry" />
        </mxCell>
        <mxCell id="QcyP5z_Ch9aapaAGs-tU-29" style="edgeStyle=orthogonalEdgeStyle;rounded=0;orthogonalLoop=1;jettySize=auto;html=1;exitX=1;exitY=0.25;exitDx=0;exitDy=0;entryX=0;entryY=0.5;entryDx=0;entryDy=0;" edge="1" parent="1" source="QcyP5z_Ch9aapaAGs-tU-20" target="QcyP5z_Ch9aapaAGs-tU-24">
          <mxGeometry relative="1" as="geometry" />
        </mxCell>
        <mxCell id="QcyP5z_Ch9aapaAGs-tU-31" style="edgeStyle=orthogonalEdgeStyle;rounded=0;orthogonalLoop=1;jettySize=auto;html=1;" edge="1" parent="1" source="QcyP5z_Ch9aapaAGs-tU-20" target="QcyP5z_Ch9aapaAGs-tU-23">
          <mxGeometry relative="1" as="geometry" />
        </mxCell>
        <mxCell id="QcyP5z_Ch9aapaAGs-tU-32" style="edgeStyle=orthogonalEdgeStyle;rounded=0;orthogonalLoop=1;jettySize=auto;html=1;exitX=1;exitY=0;exitDx=0;exitDy=0;entryX=0.5;entryY=1;entryDx=0;entryDy=0;" edge="1" parent="1" source="QcyP5z_Ch9aapaAGs-tU-20" target="QcyP5z_Ch9aapaAGs-tU-22">
          <mxGeometry relative="1" as="geometry" />
        </mxCell>
        <mxCell id="QcyP5z_Ch9aapaAGs-tU-34" style="edgeStyle=orthogonalEdgeStyle;rounded=0;orthogonalLoop=1;jettySize=auto;html=1;exitX=1;exitY=1;exitDx=0;exitDy=0;entryX=0.5;entryY=0;entryDx=0;entryDy=0;" edge="1" parent="1" source="QcyP5z_Ch9aapaAGs-tU-20" target="QcyP5z_Ch9aapaAGs-tU-26">
          <mxGeometry relative="1" as="geometry" />
        </mxCell>
        <mxCell id="QcyP5z_Ch9aapaAGs-tU-35" style="edgeStyle=orthogonalEdgeStyle;rounded=0;orthogonalLoop=1;jettySize=auto;html=1;exitX=1;exitY=0.75;exitDx=0;exitDy=0;entryX=0.5;entryY=0;entryDx=0;entryDy=0;" edge="1" parent="1" source="QcyP5z_Ch9aapaAGs-tU-20" target="QcyP5z_Ch9aapaAGs-tU-25">
          <mxGeometry relative="1" as="geometry" />
        </mxCell>
        <mxCell id="QcyP5z_Ch9aapaAGs-tU-38" style="edgeStyle=orthogonalEdgeStyle;rounded=0;orthogonalLoop=1;jettySize=auto;html=1;exitX=1;exitY=0.75;exitDx=0;exitDy=0;entryX=0.5;entryY=0;entryDx=0;entryDy=0;" edge="1" parent="1" source="QcyP5z_Ch9aapaAGs-tU-20" target="QcyP5z_Ch9aapaAGs-tU-37">
          <mxGeometry relative="1" as="geometry" />
        </mxCell>
        <mxCell id="QcyP5z_Ch9aapaAGs-tU-20" value="devices" style="rounded=1;whiteSpace=wrap;html=1;" vertex="1" parent="1">
          <mxGeometry x="414" y="140" width="80" height="30" as="geometry" />
        </mxCell>
        <mxCell id="QcyP5z_Ch9aapaAGs-tU-22" value="device_id" style="ellipse;whiteSpace=wrap;html=1;" vertex="1" parent="1">
          <mxGeometry x="494" y="50" width="70" height="40" as="geometry" />
        </mxCell>
        <mxCell id="QcyP5z_Ch9aapaAGs-tU-23" value="device_name" style="ellipse;whiteSpace=wrap;html=1;" vertex="1" parent="1">
          <mxGeometry x="600" y="100" width="80" height="40" as="geometry" />
        </mxCell>
        <mxCell id="QcyP5z_Ch9aapaAGs-tU-24" value="device_type" style="ellipse;whiteSpace=wrap;html=1;" vertex="1" parent="1">
          <mxGeometry x="620" y="190" width="80" height="40" as="geometry" />
        </mxCell>
        <mxCell id="QcyP5z_Ch9aapaAGs-tU-25" value="status" style="ellipse;whiteSpace=wrap;html=1;" vertex="1" parent="1">
          <mxGeometry x="710" y="240" width="70" height="40" as="geometry" />
        </mxCell>
        <mxCell id="QcyP5z_Ch9aapaAGs-tU-26" value="device_sn" style="ellipse;whiteSpace=wrap;html=1;" vertex="1" parent="1">
          <mxGeometry x="430" y="250" width="70" height="40" as="geometry" />
        </mxCell>
        <mxCell id="QcyP5z_Ch9aapaAGs-tU-37" value="metadata" style="ellipse;whiteSpace=wrap;html=1;" vertex="1" parent="1">
          <mxGeometry x="550" y="280" width="70" height="40" as="geometry" />
        </mxCell>
        <mxCell id="QcyP5z_Ch9aapaAGs-tU-46" style="edgeStyle=orthogonalEdgeStyle;rounded=0;orthogonalLoop=1;jettySize=auto;html=1;exitX=1;exitY=0.5;exitDx=0;exitDy=0;entryX=0;entryY=0.5;entryDx=0;entryDy=0;" edge="1" parent="1" source="QcyP5z_Ch9aapaAGs-tU-40" target="QcyP5z_Ch9aapaAGs-tU-43">
          <mxGeometry relative="1" as="geometry" />
        </mxCell>
        <mxCell id="QcyP5z_Ch9aapaAGs-tU-48" style="edgeStyle=orthogonalEdgeStyle;rounded=0;orthogonalLoop=1;jettySize=auto;html=1;exitX=0;exitY=0.5;exitDx=0;exitDy=0;entryX=1;entryY=0.5;entryDx=0;entryDy=0;" edge="1" parent="1" source="QcyP5z_Ch9aapaAGs-tU-40" target="QcyP5z_Ch9aapaAGs-tU-42">
          <mxGeometry relative="1" as="geometry" />
        </mxCell>
        <mxCell id="QcyP5z_Ch9aapaAGs-tU-49" style="edgeStyle=orthogonalEdgeStyle;rounded=0;orthogonalLoop=1;jettySize=auto;html=1;exitX=0;exitY=0.75;exitDx=0;exitDy=0;entryX=1;entryY=0.5;entryDx=0;entryDy=0;" edge="1" parent="1" source="QcyP5z_Ch9aapaAGs-tU-40" target="QcyP5z_Ch9aapaAGs-tU-45">
          <mxGeometry relative="1" as="geometry" />
        </mxCell>
        <mxCell id="QcyP5z_Ch9aapaAGs-tU-50" style="edgeStyle=orthogonalEdgeStyle;rounded=0;orthogonalLoop=1;jettySize=auto;html=1;exitX=0;exitY=1;exitDx=0;exitDy=0;entryX=0.5;entryY=0;entryDx=0;entryDy=0;" edge="1" parent="1" source="QcyP5z_Ch9aapaAGs-tU-40" target="QcyP5z_Ch9aapaAGs-tU-44">
          <mxGeometry relative="1" as="geometry" />
        </mxCell>
        <mxCell id="QcyP5z_Ch9aapaAGs-tU-60" style="edgeStyle=orthogonalEdgeStyle;rounded=0;orthogonalLoop=1;jettySize=auto;html=1;exitX=0.5;exitY=1;exitDx=0;exitDy=0;entryX=0.5;entryY=0;entryDx=0;entryDy=0;" edge="1" parent="1" source="QcyP5z_Ch9aapaAGs-tU-40" target="QcyP5z_Ch9aapaAGs-tU-58">
          <mxGeometry relative="1" as="geometry" />
        </mxCell>
        <mxCell id="QcyP5z_Ch9aapaAGs-tU-40" value="terminal" style="rounded=1;whiteSpace=wrap;html=1;" vertex="1" parent="1">
          <mxGeometry x="250" y="370" width="80" height="30" as="geometry" />
        </mxCell>
        <mxCell id="QcyP5z_Ch9aapaAGs-tU-42" value="terminal_id" style="ellipse;whiteSpace=wrap;html=1;" vertex="1" parent="1">
          <mxGeometry x="120" y="340" width="70" height="40" as="geometry" />
        </mxCell>
        <mxCell id="QcyP5z_Ch9aapaAGs-tU-43" value="terminal_name" style="ellipse;whiteSpace=wrap;html=1;" vertex="1" parent="1">
          <mxGeometry x="390" y="420" width="90" height="50" as="geometry" />
        </mxCell>
        <mxCell id="QcyP5z_Ch9aapaAGs-tU-44" value="created_at" style="ellipse;whiteSpace=wrap;html=1;" vertex="1" parent="1">
          <mxGeometry x="125" y="450" width="70" height="40" as="geometry" />
        </mxCell>
        <mxCell id="QcyP5z_Ch9aapaAGs-tU-45" value="location" style="ellipse;whiteSpace=wrap;html=1;" vertex="1" parent="1">
          <mxGeometry x="10" y="390" width="70" height="40" as="geometry" />
        </mxCell>
        <mxCell id="QcyP5z_Ch9aapaAGs-tU-53" style="edgeStyle=orthogonalEdgeStyle;rounded=0;orthogonalLoop=1;jettySize=auto;html=1;exitX=1;exitY=0.5;exitDx=0;exitDy=0;entryX=0;entryY=0.5;entryDx=0;entryDy=0;" edge="1" parent="1" source="QcyP5z_Ch9aapaAGs-tU-51" target="QcyP5z_Ch9aapaAGs-tU-20">
          <mxGeometry relative="1" as="geometry" />
        </mxCell>
        <mxCell id="QcyP5z_Ch9aapaAGs-tU-51" value="administra" style="rhombus;whiteSpace=wrap;html=1;" vertex="1" parent="1">
          <mxGeometry x="300" y="115" width="80" height="80" as="geometry" />
        </mxCell>
        <mxCell id="QcyP5z_Ch9aapaAGs-tU-56" style="edgeStyle=orthogonalEdgeStyle;rounded=0;orthogonalLoop=1;jettySize=auto;html=1;exitX=0.5;exitY=0;exitDx=0;exitDy=0;entryX=0.5;entryY=1;entryDx=0;entryDy=0;" edge="1" parent="1" source="QcyP5z_Ch9aapaAGs-tU-55" target="QcyP5z_Ch9aapaAGs-tU-20">
          <mxGeometry relative="1" as="geometry" />
        </mxCell>
        <mxCell id="QcyP5z_Ch9aapaAGs-tU-57" style="edgeStyle=orthogonalEdgeStyle;rounded=0;orthogonalLoop=1;jettySize=auto;html=1;exitX=0.5;exitY=1;exitDx=0;exitDy=0;entryX=0.5;entryY=0;entryDx=0;entryDy=0;" edge="1" parent="1" source="QcyP5z_Ch9aapaAGs-tU-55" target="QcyP5z_Ch9aapaAGs-tU-40">
          <mxGeometry relative="1" as="geometry" />
        </mxCell>
        <mxCell id="QcyP5z_Ch9aapaAGs-tU-55" value="conectado" style="rhombus;whiteSpace=wrap;html=1;" vertex="1" parent="1">
          <mxGeometry x="270" y="250" width="70" height="70" as="geometry" />
        </mxCell>
        <mxCell id="QcyP5z_Ch9aapaAGs-tU-73" style="edgeStyle=orthogonalEdgeStyle;rounded=0;orthogonalLoop=1;jettySize=auto;html=1;exitX=1;exitY=0.5;exitDx=0;exitDy=0;entryX=0;entryY=0.5;entryDx=0;entryDy=0;" edge="1" parent="1" source="QcyP5z_Ch9aapaAGs-tU-58" target="QcyP5z_Ch9aapaAGs-tU-61">
          <mxGeometry relative="1" as="geometry" />
        </mxCell>
        <mxCell id="QcyP5z_Ch9aapaAGs-tU-76" style="edgeStyle=orthogonalEdgeStyle;rounded=0;orthogonalLoop=1;jettySize=auto;html=1;exitX=0;exitY=0.5;exitDx=0;exitDy=0;entryX=0.5;entryY=0;entryDx=0;entryDy=0;" edge="1" parent="1" source="QcyP5z_Ch9aapaAGs-tU-58" target="QcyP5z_Ch9aapaAGs-tU-75">
          <mxGeometry relative="1" as="geometry" />
        </mxCell>
        <mxCell id="QcyP5z_Ch9aapaAGs-tU-58" value="configura" style="rhombus;whiteSpace=wrap;html=1;" vertex="1" parent="1">
          <mxGeometry x="255" y="490" width="70" height="70" as="geometry" />
        </mxCell>
        <mxCell id="QcyP5z_Ch9aapaAGs-tU-67" style="edgeStyle=orthogonalEdgeStyle;rounded=0;orthogonalLoop=1;jettySize=auto;html=1;exitX=1;exitY=1;exitDx=0;exitDy=0;entryX=0.5;entryY=0;entryDx=0;entryDy=0;" edge="1" parent="1" source="QcyP5z_Ch9aapaAGs-tU-61" target="QcyP5z_Ch9aapaAGs-tU-65">
          <mxGeometry relative="1" as="geometry" />
        </mxCell>
        <mxCell id="QcyP5z_Ch9aapaAGs-tU-68" style="edgeStyle=orthogonalEdgeStyle;rounded=0;orthogonalLoop=1;jettySize=auto;html=1;exitX=1;exitY=0.75;exitDx=0;exitDy=0;entryX=0.5;entryY=0;entryDx=0;entryDy=0;" edge="1" parent="1" source="QcyP5z_Ch9aapaAGs-tU-61" target="QcyP5z_Ch9aapaAGs-tU-66">
          <mxGeometry relative="1" as="geometry" />
        </mxCell>
        <mxCell id="QcyP5z_Ch9aapaAGs-tU-69" style="edgeStyle=orthogonalEdgeStyle;rounded=0;orthogonalLoop=1;jettySize=auto;html=1;exitX=1;exitY=0.5;exitDx=0;exitDy=0;entryX=0;entryY=0.5;entryDx=0;entryDy=0;" edge="1" parent="1" source="QcyP5z_Ch9aapaAGs-tU-61" target="QcyP5z_Ch9aapaAGs-tU-63">
          <mxGeometry relative="1" as="geometry" />
        </mxCell>
        <mxCell id="QcyP5z_Ch9aapaAGs-tU-70" style="edgeStyle=orthogonalEdgeStyle;rounded=0;orthogonalLoop=1;jettySize=auto;html=1;exitX=1;exitY=0.25;exitDx=0;exitDy=0;entryX=0.5;entryY=1;entryDx=0;entryDy=0;" edge="1" parent="1" source="QcyP5z_Ch9aapaAGs-tU-61" target="QcyP5z_Ch9aapaAGs-tU-64">
          <mxGeometry relative="1" as="geometry" />
        </mxCell>
        <mxCell id="QcyP5z_Ch9aapaAGs-tU-71" style="edgeStyle=orthogonalEdgeStyle;rounded=0;orthogonalLoop=1;jettySize=auto;html=1;exitX=1;exitY=0;exitDx=0;exitDy=0;entryX=0.5;entryY=1;entryDx=0;entryDy=0;" edge="1" parent="1" source="QcyP5z_Ch9aapaAGs-tU-61" target="QcyP5z_Ch9aapaAGs-tU-62">
          <mxGeometry relative="1" as="geometry" />
        </mxCell>
        <mxCell id="QcyP5z_Ch9aapaAGs-tU-61" value="cameras" style="rounded=1;whiteSpace=wrap;html=1;" vertex="1" parent="1">
          <mxGeometry x="470" y="540" width="80" height="30" as="geometry" />
        </mxCell>
        <mxCell id="QcyP5z_Ch9aapaAGs-tU-62" value="status" style="ellipse;whiteSpace=wrap;html=1;" vertex="1" parent="1">
          <mxGeometry x="564" y="410" width="70" height="40" as="geometry" />
        </mxCell>
        <mxCell id="QcyP5z_Ch9aapaAGs-tU-63" value="camera_name" style="ellipse;whiteSpace=wrap;html=1;" vertex="1" parent="1">
          <mxGeometry x="810" y="532.5" width="90" height="45" as="geometry" />
        </mxCell>
        <mxCell id="QcyP5z_Ch9aapaAGs-tU-64" value="timestamp" style="ellipse;whiteSpace=wrap;html=1;" vertex="1" parent="1">
          <mxGeometry x="710" y="450" width="70" height="40" as="geometry" />
        </mxCell>
        <mxCell id="QcyP5z_Ch9aapaAGs-tU-65" value="camera_id" style="ellipse;whiteSpace=wrap;html=1;" vertex="1" parent="1">
          <mxGeometry x="564" y="670" width="70" height="40" as="geometry" />
        </mxCell>
        <mxCell id="QcyP5z_Ch9aapaAGs-tU-66" value="file_path" style="ellipse;whiteSpace=wrap;html=1;" vertex="1" parent="1">
          <mxGeometry x="710" y="630" width="70" height="40" as="geometry" />
        </mxCell>
        <mxCell id="QcyP5z_Ch9aapaAGs-tU-139" style="edgeStyle=orthogonalEdgeStyle;rounded=0;orthogonalLoop=1;jettySize=auto;html=1;exitX=0;exitY=0.5;exitDx=0;exitDy=0;" edge="1" parent="1" source="QcyP5z_Ch9aapaAGs-tU-75" target="QcyP5z_Ch9aapaAGs-tU-77">
          <mxGeometry relative="1" as="geometry" />
        </mxCell>
        <mxCell id="QcyP5z_Ch9aapaAGs-tU-140" style="edgeStyle=orthogonalEdgeStyle;rounded=0;orthogonalLoop=1;jettySize=auto;html=1;exitX=1;exitY=0.5;exitDx=0;exitDy=0;entryX=0;entryY=0.5;entryDx=0;entryDy=0;" edge="1" parent="1" source="QcyP5z_Ch9aapaAGs-tU-75" target="QcyP5z_Ch9aapaAGs-tU-138">
          <mxGeometry relative="1" as="geometry" />
        </mxCell>
        <mxCell id="QcyP5z_Ch9aapaAGs-tU-141" style="edgeStyle=orthogonalEdgeStyle;rounded=0;orthogonalLoop=1;jettySize=auto;html=1;exitX=1;exitY=1;exitDx=0;exitDy=0;entryX=0.5;entryY=0;entryDx=0;entryDy=0;" edge="1" parent="1" source="QcyP5z_Ch9aapaAGs-tU-75" target="QcyP5z_Ch9aapaAGs-tU-136">
          <mxGeometry relative="1" as="geometry" />
        </mxCell>
        <mxCell id="QcyP5z_Ch9aapaAGs-tU-142" style="edgeStyle=orthogonalEdgeStyle;rounded=0;orthogonalLoop=1;jettySize=auto;html=1;exitX=0.5;exitY=1;exitDx=0;exitDy=0;entryX=0;entryY=0.5;entryDx=0;entryDy=0;" edge="1" parent="1" source="QcyP5z_Ch9aapaAGs-tU-75" target="QcyP5z_Ch9aapaAGs-tU-137">
          <mxGeometry relative="1" as="geometry" />
        </mxCell>
        <mxCell id="QcyP5z_Ch9aapaAGs-tU-143" style="edgeStyle=orthogonalEdgeStyle;rounded=0;orthogonalLoop=1;jettySize=auto;html=1;exitX=0.25;exitY=1;exitDx=0;exitDy=0;entryX=1;entryY=0.5;entryDx=0;entryDy=0;" edge="1" parent="1" source="QcyP5z_Ch9aapaAGs-tU-75" target="QcyP5z_Ch9aapaAGs-tU-78">
          <mxGeometry relative="1" as="geometry" />
        </mxCell>
        <mxCell id="QcyP5z_Ch9aapaAGs-tU-75" value="movil_devices" style="rounded=1;whiteSpace=wrap;html=1;" vertex="1" parent="1">
          <mxGeometry x="110" y="600" width="90" height="30" as="geometry" />
        </mxCell>
        <mxCell id="QcyP5z_Ch9aapaAGs-tU-77" value="os" style="ellipse;whiteSpace=wrap;html=1;" vertex="1" parent="1">
          <mxGeometry x="10" y="595" width="70" height="40" as="geometry" />
        </mxCell>
        <mxCell id="QcyP5z_Ch9aapaAGs-tU-78" value="last_used" style="ellipse;whiteSpace=wrap;html=1;" vertex="1" parent="1">
          <mxGeometry x="10" y="760" width="70" height="40" as="geometry" />
        </mxCell>
        <mxCell id="QcyP5z_Ch9aapaAGs-tU-136" value="movil_device_id" style="ellipse;whiteSpace=wrap;html=1;" vertex="1" parent="1">
          <mxGeometry x="300" y="760" width="130" height="40" as="geometry" />
        </mxCell>
        <mxCell id="QcyP5z_Ch9aapaAGs-tU-137" value="permissions" style="ellipse;whiteSpace=wrap;html=1;" vertex="1" parent="1">
          <mxGeometry x="170" y="760" width="80" height="40" as="geometry" />
        </mxCell>
        <mxCell id="QcyP5z_Ch9aapaAGs-tU-138" value="movil_device_name" style="ellipse;whiteSpace=wrap;html=1;" vertex="1" parent="1">
          <mxGeometry x="280" y="595" width="140" height="40" as="geometry" />
        </mxCell>
      </root>
    </mxGraphModel>
  </diagram>
</mxfile>
